<mxfile host="app.diagrams.net" modified="2024-03-26T12:33:30.867Z" agent="Mozilla/5.0 (Windows NT 10.0; Win64; x64) AppleWebKit/537.36 (KHTML, like Gecko) Chrome/122.0.0.0 Safari/537.36" version="24.1.0" etag="AQQdygSjKiWD4LLeRC7K" type="github">
  <diagram name="Page-1" id="zFsnRRdsrkEKx6rncV6n">
    <mxGraphModel>
      <root>
        <mxCell id="0" />
        <mxCell id="1" parent="0" />
      </root>
    </mxGraphModel>
  </diagram>
</mxfile>
